<?xml version="1.0" encoding="UTF-8" standalone="no"?>
<svg
   viewBox="0 0 64 64"
   version="1.1"
   id="svg7"
   sodipodi:docname="02d.svg"
   inkscape:version="1.3.2 (091e20e, 2023-11-25, custom)"
   xmlns:inkscape="http://www.inkscape.org/namespaces/inkscape"
   xmlns:sodipodi="http://sodipodi.sourceforge.net/DTD/sodipodi-0.dtd"
   xmlns="http://www.w3.org/2000/svg"
   xmlns:svg="http://www.w3.org/2000/svg">
  <sodipodi:namedview
     id="namedview7"
     pagecolor="#ffffff"
     bordercolor="#000000"
     borderopacity="0.25"
     inkscape:showpageshadow="2"
     inkscape:pageopacity="0.0"
     inkscape:pagecheckerboard="0"
     inkscape:deskcolor="#d1d1d1"
     inkscape:zoom="12.296875"
     inkscape:cx="32"
     inkscape:cy="32"
     inkscape:window-width="1920"
     inkscape:window-height="1001"
     inkscape:window-x="-9"
     inkscape:window-y="-9"
     inkscape:window-maximized="1"
     inkscape:current-layer="svg7" />
  <defs
     id="defs6">
    <linearGradient
       id="a"
       x1="16.5"
       x2="21.5"
       y1="19.67"
       y2="28.33"
       gradientUnits="userSpaceOnUse">
      <stop
         offset="0"
         stop-color="#fbbf24"
         id="stop1" />
      <stop
         offset=".45"
         stop-color="#fbbf24"
         id="stop2" />
      <stop
         offset="1"
         stop-color="#f59e0b"
         id="stop3" />
    </linearGradient>
    <linearGradient
       id="b"
       x1="22.56"
       x2="39.2"
       y1="21.96"
       y2="50.8"
       gradientUnits="userSpaceOnUse">
      <stop
         offset="0"
         stop-color="#f3f7fe"
         id="stop4"
         style="stop-color:#547cc9;stop-opacity:1;" />
      <stop
         offset=".45"
         stop-color="#f3f7fe"
         id="stop5" />
      <stop
         offset="1"
         stop-color="#deeafb"
         id="stop6" />
    </linearGradient>
  </defs>
  <circle
     cx="19"
     cy="24"
     r="5"
     fill="url(#a)"
     stroke="#f8af18"
     stroke-miterlimit="10"
     stroke-width=".5"
     id="circle6" />
  <path
     fill="none"
     stroke="#fbbf24"
     stroke-linecap="round"
     stroke-miterlimit="10"
     stroke-width="2"
     d="M19 15.67V12.5m0 23v-3.17m5.89-14.22l2.24-2.24M10.87 32.13l2.24-2.24m0-11.78l-2.24-2.24m16.26 16.26l-2.24-2.24M7.5 24h3.17m19.83 0h-3.17"
     id="path6">
    <animateTransform
       attributeName="transform"
       dur="45s"
       repeatCount="indefinite"
       type="rotate"
       values="0 19 24; 360 19 24" />
  </path>
  <path
     fill="url(#b)"
     stroke="#e6effc"
     stroke-miterlimit="10"
     stroke-width=".5"
     d="M46.5 31.5h-.32a10.49 10.49 0 00-19.11-8 7 7 0 00-10.57 6 7.21 7.21 0 00.1 1.14A7.5 7.5 0 0018 45.5a4.19 4.19 0 00.5 0v0h28a7 7 0 000-14z"
     id="path7" />
</svg>
