<?xml version="1.0" encoding="UTF-8" standalone="no"?>
<svg
   viewBox="0 0 64 64"
   version="1.1"
   id="svg13"
   sodipodi:docname="13n.svg"
   inkscape:version="1.3.2 (091e20e, 2023-11-25, custom)"
   xmlns:inkscape="http://www.inkscape.org/namespaces/inkscape"
   xmlns:sodipodi="http://sodipodi.sourceforge.net/DTD/sodipodi-0.dtd"
   xmlns:xlink="http://www.w3.org/1999/xlink"
   xmlns="http://www.w3.org/2000/svg"
   xmlns:svg="http://www.w3.org/2000/svg">
  <sodipodi:namedview
     id="namedview13"
     pagecolor="#ffffff"
     bordercolor="#000000"
     borderopacity="0.25"
     inkscape:showpageshadow="2"
     inkscape:pageopacity="0.0"
     inkscape:pagecheckerboard="0"
     inkscape:deskcolor="#d1d1d1"
     inkscape:zoom="12.296875"
     inkscape:cx="32"
     inkscape:cy="32"
     inkscape:window-width="1920"
     inkscape:window-height="1001"
     inkscape:window-x="-9"
     inkscape:window-y="-9"
     inkscape:window-maximized="1"
     inkscape:current-layer="svg13" />
  <defs
     id="defs9">
    <linearGradient
       id="b"
       x1="16.5"
       x2="21.5"
       y1="19.67"
       y2="28.33"
       gradientUnits="userSpaceOnUse">
      <stop
         offset="0"
         stop-color="#fbbf24"
         id="stop1" />
      <stop
         offset=".45"
         stop-color="#fbbf24"
         id="stop2" />
      <stop
         offset="1"
         stop-color="#f59e0b"
         id="stop3" />
    </linearGradient>
    <linearGradient
       id="c"
       x1="22.56"
       x2="39.2"
       y1="21.96"
       y2="50.8"
       gradientUnits="userSpaceOnUse">
      <stop
         offset="0"
         stop-color="#f3f7fe"
         id="stop4"
         style="stop-color:#173f86;stop-opacity:1;" />
      <stop
         offset=".45"
         stop-color="#f3f7fe"
         id="stop5" />
      <stop
         offset="1"
         stop-color="#deeafb"
         id="stop6" />
    </linearGradient>
    <linearGradient
       id="a"
       x1="30.12"
       x2="31.88"
       y1="43.48"
       y2="46.52"
       gradientUnits="userSpaceOnUse">
      <stop
         offset="0"
         stop-color="#86c3db"
         id="stop7" />
      <stop
         offset=".45"
         stop-color="#86c3db"
         id="stop8" />
      <stop
         offset="1"
         stop-color="#5eafcf"
         id="stop9" />
    </linearGradient>
    <linearGradient
       id="d"
       x1="29.67"
       x2="32.33"
       y1="42.69"
       y2="47.31"
       xlink:href="#a" />
    <linearGradient
       id="e"
       x1="23.12"
       x2="24.88"
       y1="43.48"
       y2="46.52"
       xlink:href="#a" />
    <linearGradient
       id="f"
       x1="22.67"
       x2="25.33"
       y1="42.69"
       y2="47.31"
       xlink:href="#a" />
    <linearGradient
       id="g"
       x1="37.12"
       x2="38.88"
       y1="43.48"
       y2="46.52"
       xlink:href="#a" />
    <linearGradient
       id="h"
       x1="36.67"
       x2="39.33"
       y1="42.69"
       y2="47.31"
       xlink:href="#a" />
  </defs>
  <circle
     cx="19"
     cy="24"
     r="5"
     fill="url(#b)"
     stroke="#f8af18"
     stroke-miterlimit="10"
     stroke-width=".5"
     id="circle9" />
  <path
     fill="none"
     stroke="#fbbf24"
     stroke-linecap="round"
     stroke-miterlimit="10"
     stroke-width="2"
     d="M19 15.67V12.5m0 23v-3.17m5.89-14.22l2.24-2.24M10.87 32.13l2.24-2.24m0-11.78l-2.24-2.24m16.26 16.26l-2.24-2.24M7.5 24h3.17m19.83 0h-3.17"
     id="path9">
    <animateTransform
       attributeName="transform"
       dur="45s"
       repeatCount="indefinite"
       type="rotate"
       values="0 19 24; 360 19 24" />
  </path>
  <path
     fill="url(#c)"
     stroke="#e6effc"
     stroke-miterlimit="10"
     stroke-width=".5"
     d="M46.5 31.5h-.32a10.49 10.49 0 00-19.11-8 7 7 0 00-10.57 6 7.21 7.21 0 00.1 1.14A7.5 7.5 0 0018 45.5a4.19 4.19 0 00.5 0v0h28a7 7 0 000-14z"
     id="path10" />
  <g
     id="g11">
    <circle
       cx="31"
       cy="45"
       r="1.25"
       fill="none"
       stroke="url(#a)"
       stroke-miterlimit="10"
       id="circle10" />
    <path
       fill="none"
       stroke="url(#d)"
       stroke-linecap="round"
       stroke-miterlimit="10"
       d="M33.17 46.25l-1.09-.63m-2.16-1.24l-1.09-.63M31 42.5v1.25m0 3.75v-1.25m-1.08-.63l-1.09.63m4.34-2.5l-1.09.63"
       id="path11" />
    <animateTransform
       additive="sum"
       attributeName="transform"
       dur="4s"
       repeatCount="indefinite"
       type="translate"
       values="-1 -6; 1 12" />
    <animateTransform
       additive="sum"
       attributeName="transform"
       dur="9s"
       repeatCount="indefinite"
       type="rotate"
       values="0 31 45; 360 31 45" />
    <animate
       attributeName="opacity"
       dur="4s"
       repeatCount="indefinite"
       values="0;1;1;1;0" />
  </g>
  <g
     id="g12">
    <circle
       cx="24"
       cy="45"
       r="1.25"
       fill="none"
       stroke="url(#e)"
       stroke-miterlimit="10"
       id="circle11" />
    <path
       fill="none"
       stroke="url(#f)"
       stroke-linecap="round"
       stroke-miterlimit="10"
       d="M26.17 46.25l-1.09-.63m-2.16-1.24l-1.09-.63M24 42.5v1.25m0 3.75v-1.25m-1.08-.63l-1.09.63m4.34-2.5l-1.09.63"
       id="path12" />
    <animateTransform
       additive="sum"
       attributeName="transform"
       begin="-2s"
       dur="4s"
       repeatCount="indefinite"
       type="translate"
       values="1 -6; -1 12" />
    <animateTransform
       additive="sum"
       attributeName="transform"
       dur="9s"
       repeatCount="indefinite"
       type="rotate"
       values="0 24 45; 360 24 45" />
    <animate
       attributeName="opacity"
       begin="-2s"
       dur="4s"
       repeatCount="indefinite"
       values="0;1;1;1;0" />
  </g>
  <g
     id="g13">
    <circle
       cx="38"
       cy="45"
       r="1.25"
       fill="none"
       stroke="url(#g)"
       stroke-miterlimit="10"
       id="circle12" />
    <path
       fill="none"
       stroke="url(#h)"
       stroke-linecap="round"
       stroke-miterlimit="10"
       d="M40.17 46.25l-1.09-.63m-2.16-1.24l-1.09-.63M38 42.5v1.25m0 3.75v-1.25m-1.08-.63l-1.09.63m4.34-2.5l-1.09.63"
       id="path13" />
    <animateTransform
       additive="sum"
       attributeName="transform"
       begin="-1s"
       dur="4s"
       repeatCount="indefinite"
       type="translate"
       values="1 -6; -1 12" />
    <animateTransform
       additive="sum"
       attributeName="transform"
       dur="9s"
       repeatCount="indefinite"
       type="rotate"
       values="0 38 45; 360 38 45" />
    <animate
       attributeName="opacity"
       begin="-1s"
       dur="4s"
       repeatCount="indefinite"
       values="0;1;1;1;0" />
  </g>
</svg>
